<svg xmlns="http://www.w3.org/2000/svg" viewBox="0 0 24 24" fill="none" stroke="#000" stroke-width="1.8" stroke-linecap="round" stroke-linejoin="round">
  <path d="M12 2c3 0 5 2.2 5 5v1.5c0 1.1.9 2 2 2 .6 0 1 .4 1 1s-.4 1-1 1c-1.1 0-2 .9-2 2v.5c0 .9.5 1.7 1.3 2.2.6.4.7 1.1.4 1.7-.3.6-1 .9-1.6.6-.6-.3-1.3-.6-2-.6-.8 0-1.5.3-2.2.6-.6.3-1.3.3-1.9 0-.7-.3-1.4-.6-2.2-.6-.7 0-1.4.3-2 .6-.6.3-1.3 0-1.6-.6-.3-.6-.2-1.3.4-1.7.8-.5 1.3-1.3 1.3-2.2V13c0-1.1-.9-2-2-2-.6 0-1-.4-1-1s.4-1 1-1c1.1 0 2-.9 2-2V7c0-2.8 2-5 5-5z"></path>
</svg>
